HIERARCHY
ROOT Hips
{
	OFFSET -0.001795 -0.223333 0.028219
	CHANNELS 6 Xposition Yposition Zposition Zrotation Yrotation Xrotation 
	JOINT LeftUpLeg
	{
		OFFSET 0.069520 -0.091406 -0.006815
		CHANNELS 3 Zrotation Yrotation Xrotation
		JOINT LeftLeg
		{
			OFFSET 0.034277 -0.375199 -0.004496
			CHANNELS 3 Zrotation Yrotation Xrotation
			JOINT LeftFoot
			{
				OFFSET -0.013596 -0.397961 -0.043693
				CHANNELS 3 Zrotation Yrotation Xrotation
				JOINT LeftToe
				{
					OFFSET 0.026358 -0.055791 0.119288
					CHANNELS 3 Zrotation Yrotation Xrotation
					End Site
					{
						OFFSET 0.000000 0.000000 0.000000
					}
				}
			}
		}
	}
	JOINT RightUpLeg
	{
		OFFSET -0.067670 -0.090522 -0.004320
		CHANNELS 3 Zrotation Yrotation Xrotation
		JOINT RightLeg
		{
			OFFSET -0.038290 -0.382569 -0.008850
			CHANNELS 3 Zrotation Yrotation Xrotation
			JOINT RightFoot
			{
				OFFSET 0.015774 -0.398415 -0.042312
				CHANNELS 3 Zrotation Yrotation Xrotation
				JOINT RightToe
				{
					OFFSET -0.025372 -0.048144 0.123348
					CHANNELS 3 Zrotation Yrotation Xrotation
					End Site
					{
						OFFSET 0.000000 0.000000 0.000000
					}
				}
			}
		}
	}
	JOINT Spine
	{
		OFFSET -0.002533 0.108963 -0.026696
		CHANNELS 3 Zrotation Yrotation Xrotation
		JOINT Spine1
		{
			OFFSET 0.005487 0.135180 0.001092
			CHANNELS 3 Zrotation Yrotation Xrotation
			JOINT Spine2
			{
				OFFSET 0.001457 0.052922 0.025425
				CHANNELS 3 Zrotation Yrotation Xrotation
				JOINT Neck
				{
					OFFSET -0.002778 0.213870 -0.042857
					CHANNELS 3 Zrotation Yrotation Xrotation
					JOINT Head
					{
						OFFSET 0.005152 0.064970 0.051349
						CHANNELS 3 Zrotation Yrotation Xrotation
						End Site
						{
							OFFSET 0.000000 0.000000 0.000000
						}
					}
				}
				JOINT LeftShoulder
				{
					OFFSET 0.078845 0.121749 -0.034090
					CHANNELS 3 Zrotation Yrotation Xrotation
					JOINT LeftArm
					{
						OFFSET 0.090977 0.030469 -0.008868
						CHANNELS 3 Zrotation Yrotation Xrotation
						JOINT LeftForeArm
						{
							OFFSET 0.259612 -0.012772 -0.027456
							CHANNELS 3 Zrotation Yrotation Xrotation
							JOINT LeftHand
							{
								OFFSET 0.249234 0.008986 -0.001171
								CHANNELS 3 Zrotation Yrotation Xrotation
								End Site
								{
									OFFSET 0.000000 0.000000 0.000000
								}
							}
						}
					}
				}
				JOINT RightShoulder
				{
					OFFSET -0.081759 0.118833 -0.038615
					CHANNELS 3 Zrotation Yrotation Xrotation
					JOINT RightArm
					{
						OFFSET -0.096012 0.032551 -0.009143
						CHANNELS 3 Zrotation Yrotation Xrotation
						JOINT RightForeArm
						{
							OFFSET -0.253742 -0.013329 -0.021401
							CHANNELS 3 Zrotation Yrotation Xrotation
							JOINT RightHand
							{
								OFFSET -0.255298 0.007772 -0.005559
								CHANNELS 3 Zrotation Yrotation Xrotation
								End Site
								{
									OFFSET 0.000000 0.000000 0.000000
								}
							}
						}
					}
				}
			}
		}
	}
}
MOTION
Frames: 5
Frame Time: 0.050000
-0.008669 0.604136 -0.060129 -0.894160 -4.166854 -17.325190 9.632768 0.849285 -60.717023 -10.072241 8.705242 87.076358 -0.078427 -6.219184 -10.293603 0.000000 0.000000 0.000000 -7.178608 4.247908 -62.815290 15.559157 -11.343813 87.196800 0.305901 3.075477 -3.856071 0.000000 0.000000 0.000000 3.056071 -1.632750 32.727278 -1.387457 0.713107 -5.160521 -4.150326 5.103513 0.921802 9.362584 -4.145110 -16.337326 0.000000 0.000000 0.000000 -16.323025 -5.928597 0.226390 -54.151678 -8.172208 -2.628953 -1.647599 -20.257985 0.808198 0.000000 0.000000 0.000000 15.167158 0.369944 -0.551630 60.238822 7.145379 -2.270049 4.592252 25.319014 1.969847 0.000000 0.000000 0.000000 
-0.008820 0.604134 -0.060863 -0.929950 -4.314615 -17.195964 9.789715 1.001921 -60.807283 -10.093569 8.759706 86.966006 -0.075397 -6.238305 -10.332846 0.000000 0.000000 0.000000 -7.177461 4.307784 -62.880475 15.726878 -11.436449 86.933764 0.254783 3.025836 -4.003383 0.000000 0.000000 0.000000 3.028853 -1.605267 32.566551 -1.416932 0.723856 -5.191969 -4.025775 5.067695 0.911994 9.283938 -4.145610 -16.136111 0.000000 0.000000 0.000000 -16.303144 -5.781036 0.187667 -54.200482 -7.951326 -2.738418 -1.573744 -19.795571 0.785984 0.000000 0.000000 0.000000 15.179609 0.447924 -0.537091 60.232356 7.189837 -2.245797 4.512825 25.584237 1.970357 0.000000 0.000000 0.000000 
-0.008946 0.604076 -0.061588 -0.961227 -4.417432 -17.141947 9.853078 1.078016 -60.816187 -10.042057 8.720132 86.875400 -0.048446 -6.263771 -10.471766 0.000000 0.000000 0.000000 -7.228894 4.321433 -62.963829 15.917387 -11.588382 86.763249 0.262957 2.972609 -3.885590 0.000000 0.000000 0.000000 3.015625 -1.591146 32.521464 -1.406356 0.717001 -5.194290 -3.926547 5.134468 0.872566 9.204847 -4.102364 -16.086005 0.000000 0.000000 0.000000 -16.226196 -5.658801 0.138566 -54.253775 -7.764110 -2.829227 -1.691568 -19.472790 0.795503 0.000000 0.000000 0.000000 15.222569 0.347619 -0.588450 60.114083 7.149464 -2.261169 4.617783 25.856575 2.017063 0.000000 0.000000 0.000000 
-0.009056 0.604030 -0.062308 -0.939399 -4.470380 -17.127621 9.845539 1.096471 -60.858654 -9.997187 8.686357 86.837942 -0.063156 -6.254307 -10.405071 0.000000 0.000000 0.000000 -7.255078 4.332866 -63.016560 15.978298 -11.618933 86.678632 0.276086 2.961308 -3.810470 0.000000 0.000000 0.000000 2.984740 -1.577166 32.519220 -1.389890 0.707727 -5.082753 -3.869279 5.126126 0.722297 9.029701 -4.015073 -15.949453 0.000000 0.000000 0.000000 -16.242093 -5.455418 0.044612 -54.312923 -7.588126 -2.903137 -1.719969 -19.209868 0.790841 0.000000 0.000000 0.000000 15.227917 0.373970 -0.587475 60.026304 7.100975 -2.270394 4.605519 25.892190 2.012677 0.000000 0.000000 0.000000 
-0.009184 0.604159 -0.063026 -0.922423 -4.499158 -17.078479 9.823760 1.097677 -60.929526 -9.946661 8.634522 86.779408 -0.087712 -6.245876 -10.303471 0.000000 0.000000 0.000000 -7.336891 4.304667 -63.101426 16.090226 -11.711263 86.557277 0.308199 2.941944 -3.639324 0.000000 0.000000 0.000000 3.001937 -1.578611 32.525934 -1.384525 0.704917 -5.168008 -3.765480 5.079344 0.848467 8.918873 -3.954965 -15.960509 0.000000 0.000000 0.000000 -16.246677 -5.292887 -0.008294 -54.356967 -7.507611 -2.960584 -1.736088 -19.129296 0.795804 0.000000 0.000000 0.000000 15.114650 0.359306 -0.601611 59.978903 7.166716 -2.244408 4.601081 25.881466 2.008010 0.000000 0.000000 0.000000 
